<mxfile host="app.diagrams.net" modified="2023-09-13T07:07:19.624Z" agent="Mozilla/5.0 (X11; Ubuntu; Linux x86_64; rv:109.0) Gecko/20100101 Firefox/111.0" etag="lnUz42sWQihp8vcvwrfp" version="21.7.4" type="device">
  <diagram name="Page-1" id="YbhR9tWAV1tTzsC1S4DS">
    <mxGraphModel dx="2514" dy="1331" grid="1" gridSize="10" guides="1" tooltips="1" connect="1" arrows="1" fold="1" page="1" pageScale="1" pageWidth="1100" pageHeight="1700" math="0" shadow="0">
      <root>
        <mxCell id="0" />
        <mxCell id="1" parent="0" />
        <mxCell id="x3Qhe64aSPMRLp8mbO2n-8" value="" style="group" vertex="1" connectable="0" parent="1">
          <mxGeometry x="40" y="230" width="160" height="320" as="geometry" />
        </mxCell>
        <mxCell id="x3Qhe64aSPMRLp8mbO2n-5" value="" style="rounded=0;whiteSpace=wrap;html=1;" vertex="1" parent="x3Qhe64aSPMRLp8mbO2n-8">
          <mxGeometry width="160" height="320" as="geometry" />
        </mxCell>
        <mxCell id="x3Qhe64aSPMRLp8mbO2n-1" value="Decription" style="whiteSpace=wrap;html=1;aspect=fixed;" vertex="1" parent="x3Qhe64aSPMRLp8mbO2n-8">
          <mxGeometry x="40" y="60" width="80" height="80" as="geometry" />
        </mxCell>
        <mxCell id="x3Qhe64aSPMRLp8mbO2n-2" value="Table of contents" style="whiteSpace=wrap;html=1;aspect=fixed;" vertex="1" parent="x3Qhe64aSPMRLp8mbO2n-8">
          <mxGeometry x="40" y="140" width="80" height="80" as="geometry" />
        </mxCell>
        <mxCell id="x3Qhe64aSPMRLp8mbO2n-3" value="Section n" style="whiteSpace=wrap;html=1;aspect=fixed;" vertex="1" parent="x3Qhe64aSPMRLp8mbO2n-8">
          <mxGeometry x="40" y="220" width="80" height="80" as="geometry" />
        </mxCell>
        <mxCell id="x3Qhe64aSPMRLp8mbO2n-7" value="Prompt structure" style="text;html=1;strokeColor=none;fillColor=none;align=center;verticalAlign=middle;whiteSpace=wrap;rounded=0;" vertex="1" parent="x3Qhe64aSPMRLp8mbO2n-8">
          <mxGeometry x="10" y="20" width="140" height="30" as="geometry" />
        </mxCell>
        <mxCell id="x3Qhe64aSPMRLp8mbO2n-19" style="edgeStyle=orthogonalEdgeStyle;rounded=0;orthogonalLoop=1;jettySize=auto;html=1;exitX=0.5;exitY=1;exitDx=0;exitDy=0;entryX=0.5;entryY=0;entryDx=0;entryDy=0;" edge="1" parent="1" source="x3Qhe64aSPMRLp8mbO2n-9" target="x3Qhe64aSPMRLp8mbO2n-12">
          <mxGeometry relative="1" as="geometry" />
        </mxCell>
        <mxCell id="x3Qhe64aSPMRLp8mbO2n-9" value="Description" style="whiteSpace=wrap;html=1;aspect=fixed;" vertex="1" parent="1">
          <mxGeometry x="470" y="120" width="80" height="80" as="geometry" />
        </mxCell>
        <mxCell id="x3Qhe64aSPMRLp8mbO2n-39" style="edgeStyle=orthogonalEdgeStyle;rounded=0;orthogonalLoop=1;jettySize=auto;html=1;entryX=0.5;entryY=0;entryDx=0;entryDy=0;" edge="1" parent="1" source="x3Qhe64aSPMRLp8mbO2n-10" target="x3Qhe64aSPMRLp8mbO2n-38">
          <mxGeometry relative="1" as="geometry" />
        </mxCell>
        <mxCell id="x3Qhe64aSPMRLp8mbO2n-10" value="&lt;div&gt;Get table of contents&lt;/div&gt;" style="rounded=1;whiteSpace=wrap;html=1;" vertex="1" parent="1">
          <mxGeometry x="450" y="580" width="120" height="60" as="geometry" />
        </mxCell>
        <mxCell id="x3Qhe64aSPMRLp8mbO2n-18" style="edgeStyle=orthogonalEdgeStyle;rounded=0;orthogonalLoop=1;jettySize=auto;html=1;entryX=0.5;entryY=0;entryDx=0;entryDy=0;" edge="1" parent="1" source="x3Qhe64aSPMRLp8mbO2n-12" target="x3Qhe64aSPMRLp8mbO2n-11">
          <mxGeometry relative="1" as="geometry" />
        </mxCell>
        <mxCell id="x3Qhe64aSPMRLp8mbO2n-22" style="edgeStyle=orthogonalEdgeStyle;rounded=0;orthogonalLoop=1;jettySize=auto;html=1;entryX=0.5;entryY=0;entryDx=0;entryDy=0;" edge="1" parent="1" source="x3Qhe64aSPMRLp8mbO2n-12" target="x3Qhe64aSPMRLp8mbO2n-21">
          <mxGeometry relative="1" as="geometry" />
        </mxCell>
        <mxCell id="x3Qhe64aSPMRLp8mbO2n-12" value="prompt.SetDescription" style="rounded=1;whiteSpace=wrap;html=1;" vertex="1" parent="1">
          <mxGeometry x="450" y="220" width="120" height="60" as="geometry" />
        </mxCell>
        <mxCell id="x3Qhe64aSPMRLp8mbO2n-13" value="prompt.SetToc" style="rounded=1;whiteSpace=wrap;html=1;" vertex="1" parent="1">
          <mxGeometry x="670" y="70" width="120" height="60" as="geometry" />
        </mxCell>
        <mxCell id="x3Qhe64aSPMRLp8mbO2n-14" value="prompt.AppendSection" style="rounded=1;whiteSpace=wrap;html=1;" vertex="1" parent="1">
          <mxGeometry x="670" y="150" width="120" height="60" as="geometry" />
        </mxCell>
        <mxCell id="x3Qhe64aSPMRLp8mbO2n-25" style="edgeStyle=orthogonalEdgeStyle;rounded=0;orthogonalLoop=1;jettySize=auto;html=1;exitX=0.5;exitY=1;exitDx=0;exitDy=0;entryX=0.5;entryY=0;entryDx=0;entryDy=0;" edge="1" parent="1" source="x3Qhe64aSPMRLp8mbO2n-15" target="x3Qhe64aSPMRLp8mbO2n-9">
          <mxGeometry relative="1" as="geometry" />
        </mxCell>
        <mxCell id="x3Qhe64aSPMRLp8mbO2n-15" value="Init" style="ellipse;whiteSpace=wrap;html=1;" vertex="1" parent="1">
          <mxGeometry x="450" y="10" width="120" height="80" as="geometry" />
        </mxCell>
        <mxCell id="x3Qhe64aSPMRLp8mbO2n-23" style="edgeStyle=orthogonalEdgeStyle;rounded=0;orthogonalLoop=1;jettySize=auto;html=1;entryX=1.059;entryY=0.289;entryDx=0;entryDy=0;entryPerimeter=0;" edge="1" parent="1" source="x3Qhe64aSPMRLp8mbO2n-21" target="x3Qhe64aSPMRLp8mbO2n-20">
          <mxGeometry relative="1" as="geometry" />
        </mxCell>
        <mxCell id="x3Qhe64aSPMRLp8mbO2n-29" style="edgeStyle=orthogonalEdgeStyle;rounded=0;orthogonalLoop=1;jettySize=auto;html=1;exitX=0.5;exitY=1;exitDx=0;exitDy=0;entryX=0.5;entryY=0;entryDx=0;entryDy=0;" edge="1" parent="1" source="x3Qhe64aSPMRLp8mbO2n-21" target="x3Qhe64aSPMRLp8mbO2n-28">
          <mxGeometry relative="1" as="geometry" />
        </mxCell>
        <mxCell id="x3Qhe64aSPMRLp8mbO2n-21" value="&lt;div&gt;sectionCounter.reset&lt;/div&gt;" style="rounded=1;whiteSpace=wrap;html=1;" vertex="1" parent="1">
          <mxGeometry x="450" y="300" width="120" height="60" as="geometry" />
        </mxCell>
        <mxCell id="x3Qhe64aSPMRLp8mbO2n-24" value="" style="group" vertex="1" connectable="0" parent="1">
          <mxGeometry x="260" y="280" width="80" height="160" as="geometry" />
        </mxCell>
        <mxCell id="x3Qhe64aSPMRLp8mbO2n-11" value="Prompt" style="whiteSpace=wrap;html=1;aspect=fixed;" vertex="1" parent="x3Qhe64aSPMRLp8mbO2n-24">
          <mxGeometry width="80" height="80" as="geometry" />
        </mxCell>
        <mxCell id="x3Qhe64aSPMRLp8mbO2n-20" value="&lt;div&gt;Section&lt;/div&gt;&lt;div&gt;counter&lt;/div&gt;" style="whiteSpace=wrap;html=1;aspect=fixed;" vertex="1" parent="x3Qhe64aSPMRLp8mbO2n-24">
          <mxGeometry y="80" width="80" height="80" as="geometry" />
        </mxCell>
        <mxCell id="x3Qhe64aSPMRLp8mbO2n-32" style="edgeStyle=orthogonalEdgeStyle;rounded=0;orthogonalLoop=1;jettySize=auto;html=1;entryX=0.5;entryY=0;entryDx=0;entryDy=0;" edge="1" parent="1" source="x3Qhe64aSPMRLp8mbO2n-26" target="x3Qhe64aSPMRLp8mbO2n-31">
          <mxGeometry relative="1" as="geometry" />
        </mxCell>
        <mxCell id="x3Qhe64aSPMRLp8mbO2n-26" value="Ask for more details" style="rounded=1;whiteSpace=wrap;html=1;" vertex="1" parent="1">
          <mxGeometry x="620" y="390" width="120" height="60" as="geometry" />
        </mxCell>
        <mxCell id="x3Qhe64aSPMRLp8mbO2n-30" style="edgeStyle=orthogonalEdgeStyle;rounded=0;orthogonalLoop=1;jettySize=auto;html=1;entryX=0;entryY=0.5;entryDx=0;entryDy=0;" edge="1" parent="1" source="x3Qhe64aSPMRLp8mbO2n-28" target="x3Qhe64aSPMRLp8mbO2n-26">
          <mxGeometry relative="1" as="geometry" />
        </mxCell>
        <mxCell id="x3Qhe64aSPMRLp8mbO2n-34" style="edgeStyle=orthogonalEdgeStyle;rounded=0;orthogonalLoop=1;jettySize=auto;html=1;entryX=0.5;entryY=0;entryDx=0;entryDy=0;" edge="1" parent="1" source="x3Qhe64aSPMRLp8mbO2n-28" target="x3Qhe64aSPMRLp8mbO2n-10">
          <mxGeometry relative="1" as="geometry" />
        </mxCell>
        <mxCell id="x3Qhe64aSPMRLp8mbO2n-28" value="Check for more details" style="rhombus;whiteSpace=wrap;html=1;" vertex="1" parent="1">
          <mxGeometry x="470" y="380" width="80" height="80" as="geometry" />
        </mxCell>
        <mxCell id="x3Qhe64aSPMRLp8mbO2n-33" style="edgeStyle=orthogonalEdgeStyle;rounded=0;orthogonalLoop=1;jettySize=auto;html=1;entryX=0.75;entryY=0;entryDx=0;entryDy=0;" edge="1" parent="1" source="x3Qhe64aSPMRLp8mbO2n-31" target="x3Qhe64aSPMRLp8mbO2n-10">
          <mxGeometry relative="1" as="geometry" />
        </mxCell>
        <mxCell id="x3Qhe64aSPMRLp8mbO2n-31" value="prompt.UpdateDescription" style="rounded=1;whiteSpace=wrap;html=1;" vertex="1" parent="1">
          <mxGeometry x="620" y="490" width="120" height="60" as="geometry" />
        </mxCell>
        <mxCell id="x3Qhe64aSPMRLp8mbO2n-35" value="True" style="text;html=1;strokeColor=none;fillColor=none;align=center;verticalAlign=middle;whiteSpace=wrap;rounded=0;" vertex="1" parent="1">
          <mxGeometry x="540" y="380" width="60" height="30" as="geometry" />
        </mxCell>
        <mxCell id="x3Qhe64aSPMRLp8mbO2n-36" value="&lt;div&gt;False&lt;/div&gt;" style="text;html=1;strokeColor=none;fillColor=none;align=center;verticalAlign=middle;whiteSpace=wrap;rounded=0;" vertex="1" parent="1">
          <mxGeometry x="460" y="460" width="60" height="30" as="geometry" />
        </mxCell>
        <mxCell id="x3Qhe64aSPMRLp8mbO2n-42" style="edgeStyle=orthogonalEdgeStyle;rounded=0;orthogonalLoop=1;jettySize=auto;html=1;entryX=0.5;entryY=0;entryDx=0;entryDy=0;" edge="1" parent="1" source="x3Qhe64aSPMRLp8mbO2n-37" target="x3Qhe64aSPMRLp8mbO2n-41">
          <mxGeometry relative="1" as="geometry" />
        </mxCell>
        <mxCell id="x3Qhe64aSPMRLp8mbO2n-37" value="&lt;div&gt;Get section &amp;lt;section counter&amp;gt; toc&lt;br&gt;&lt;/div&gt;" style="rounded=1;whiteSpace=wrap;html=1;" vertex="1" parent="1">
          <mxGeometry x="450" y="760" width="120" height="60" as="geometry" />
        </mxCell>
        <mxCell id="x3Qhe64aSPMRLp8mbO2n-40" style="edgeStyle=orthogonalEdgeStyle;rounded=0;orthogonalLoop=1;jettySize=auto;html=1;entryX=0.5;entryY=0;entryDx=0;entryDy=0;" edge="1" parent="1" source="x3Qhe64aSPMRLp8mbO2n-38" target="x3Qhe64aSPMRLp8mbO2n-37">
          <mxGeometry relative="1" as="geometry" />
        </mxCell>
        <mxCell id="x3Qhe64aSPMRLp8mbO2n-38" value="&lt;div&gt;sectionCounter.incr&lt;/div&gt;" style="rounded=1;whiteSpace=wrap;html=1;" vertex="1" parent="1">
          <mxGeometry x="450" y="680" width="120" height="60" as="geometry" />
        </mxCell>
        <mxCell id="x3Qhe64aSPMRLp8mbO2n-46" style="edgeStyle=orthogonalEdgeStyle;rounded=0;orthogonalLoop=1;jettySize=auto;html=1;entryX=0;entryY=0.5;entryDx=0;entryDy=0;" edge="1" parent="1" source="x3Qhe64aSPMRLp8mbO2n-41" target="x3Qhe64aSPMRLp8mbO2n-43">
          <mxGeometry relative="1" as="geometry" />
        </mxCell>
        <mxCell id="x3Qhe64aSPMRLp8mbO2n-49" style="edgeStyle=orthogonalEdgeStyle;rounded=0;orthogonalLoop=1;jettySize=auto;html=1;exitX=0.5;exitY=1;exitDx=0;exitDy=0;entryX=0.5;entryY=0;entryDx=0;entryDy=0;" edge="1" parent="1" source="x3Qhe64aSPMRLp8mbO2n-41" target="x3Qhe64aSPMRLp8mbO2n-48">
          <mxGeometry relative="1" as="geometry" />
        </mxCell>
        <mxCell id="x3Qhe64aSPMRLp8mbO2n-41" value="Check for more details" style="rhombus;whiteSpace=wrap;html=1;" vertex="1" parent="1">
          <mxGeometry x="470" y="840" width="80" height="80" as="geometry" />
        </mxCell>
        <mxCell id="x3Qhe64aSPMRLp8mbO2n-51" style="edgeStyle=orthogonalEdgeStyle;rounded=0;orthogonalLoop=1;jettySize=auto;html=1;exitX=0.5;exitY=1;exitDx=0;exitDy=0;entryX=0.5;entryY=0;entryDx=0;entryDy=0;" edge="1" parent="1" source="x3Qhe64aSPMRLp8mbO2n-43" target="x3Qhe64aSPMRLp8mbO2n-47">
          <mxGeometry relative="1" as="geometry" />
        </mxCell>
        <mxCell id="x3Qhe64aSPMRLp8mbO2n-43" value="Ask for more details" style="rounded=1;whiteSpace=wrap;html=1;" vertex="1" parent="1">
          <mxGeometry x="620" y="850" width="120" height="60" as="geometry" />
        </mxCell>
        <mxCell id="x3Qhe64aSPMRLp8mbO2n-44" value="True" style="text;html=1;strokeColor=none;fillColor=none;align=center;verticalAlign=middle;whiteSpace=wrap;rounded=0;" vertex="1" parent="1">
          <mxGeometry x="540" y="840" width="60" height="30" as="geometry" />
        </mxCell>
        <mxCell id="x3Qhe64aSPMRLp8mbO2n-45" value="&lt;div&gt;False&lt;/div&gt;" style="text;html=1;strokeColor=none;fillColor=none;align=center;verticalAlign=middle;whiteSpace=wrap;rounded=0;" vertex="1" parent="1">
          <mxGeometry x="450" y="930" width="60" height="30" as="geometry" />
        </mxCell>
        <mxCell id="x3Qhe64aSPMRLp8mbO2n-52" style="edgeStyle=orthogonalEdgeStyle;rounded=0;orthogonalLoop=1;jettySize=auto;html=1;entryX=0.75;entryY=0;entryDx=0;entryDy=0;" edge="1" parent="1" source="x3Qhe64aSPMRLp8mbO2n-47" target="x3Qhe64aSPMRLp8mbO2n-48">
          <mxGeometry relative="1" as="geometry" />
        </mxCell>
        <mxCell id="x3Qhe64aSPMRLp8mbO2n-47" value="section.setDescription" style="rounded=1;whiteSpace=wrap;html=1;" vertex="1" parent="1">
          <mxGeometry x="620" y="930" width="120" height="60" as="geometry" />
        </mxCell>
        <mxCell id="x3Qhe64aSPMRLp8mbO2n-48" value="&lt;div&gt;Generate section&lt;/div&gt;" style="rounded=1;whiteSpace=wrap;html=1;" vertex="1" parent="1">
          <mxGeometry x="450" y="1010" width="120" height="60" as="geometry" />
        </mxCell>
        <mxCell id="x3Qhe64aSPMRLp8mbO2n-56" style="edgeStyle=orthogonalEdgeStyle;rounded=0;orthogonalLoop=1;jettySize=auto;html=1;exitX=0.5;exitY=1;exitDx=0;exitDy=0;entryX=0.5;entryY=0;entryDx=0;entryDy=0;" edge="1" parent="1" source="x3Qhe64aSPMRLp8mbO2n-54" target="x3Qhe64aSPMRLp8mbO2n-55">
          <mxGeometry relative="1" as="geometry" />
        </mxCell>
        <mxCell id="x3Qhe64aSPMRLp8mbO2n-54" value="&lt;div&gt;prompt.addSection&lt;/div&gt;" style="rounded=1;whiteSpace=wrap;html=1;" vertex="1" parent="1">
          <mxGeometry x="450" y="1100" width="120" height="60" as="geometry" />
        </mxCell>
        <mxCell id="x3Qhe64aSPMRLp8mbO2n-60" style="edgeStyle=orthogonalEdgeStyle;rounded=0;orthogonalLoop=1;jettySize=auto;html=1;exitX=0.5;exitY=1;exitDx=0;exitDy=0;" edge="1" parent="1" source="x3Qhe64aSPMRLp8mbO2n-55" target="x3Qhe64aSPMRLp8mbO2n-58">
          <mxGeometry relative="1" as="geometry" />
        </mxCell>
        <mxCell id="x3Qhe64aSPMRLp8mbO2n-61" style="edgeStyle=orthogonalEdgeStyle;rounded=0;orthogonalLoop=1;jettySize=auto;html=1;exitX=0;exitY=0.5;exitDx=0;exitDy=0;entryX=0.25;entryY=0;entryDx=0;entryDy=0;" edge="1" parent="1" source="x3Qhe64aSPMRLp8mbO2n-55" target="x3Qhe64aSPMRLp8mbO2n-38">
          <mxGeometry relative="1" as="geometry">
            <mxPoint x="390" y="670" as="targetPoint" />
            <Array as="points">
              <mxPoint x="400" y="1240" />
              <mxPoint x="400" y="660" />
              <mxPoint x="480" y="660" />
            </Array>
          </mxGeometry>
        </mxCell>
        <mxCell id="x3Qhe64aSPMRLp8mbO2n-55" value="&lt;div&gt;Is document&lt;/div&gt;&lt;div&gt;finished?&lt;/div&gt;" style="rhombus;whiteSpace=wrap;html=1;" vertex="1" parent="1">
          <mxGeometry x="470" y="1200" width="80" height="80" as="geometry" />
        </mxCell>
        <mxCell id="x3Qhe64aSPMRLp8mbO2n-57" value="&lt;div&gt;No&lt;/div&gt;" style="text;html=1;strokeColor=none;fillColor=none;align=center;verticalAlign=middle;whiteSpace=wrap;rounded=0;" vertex="1" parent="1">
          <mxGeometry x="430" y="1200" width="60" height="30" as="geometry" />
        </mxCell>
        <mxCell id="x3Qhe64aSPMRLp8mbO2n-58" value="&lt;div&gt;Return&lt;/div&gt;" style="ellipse;whiteSpace=wrap;html=1;" vertex="1" parent="1">
          <mxGeometry x="450" y="1320" width="120" height="80" as="geometry" />
        </mxCell>
        <mxCell id="x3Qhe64aSPMRLp8mbO2n-59" value="Yes" style="text;html=1;strokeColor=none;fillColor=none;align=center;verticalAlign=middle;whiteSpace=wrap;rounded=0;" vertex="1" parent="1">
          <mxGeometry x="530" y="1270" width="60" height="30" as="geometry" />
        </mxCell>
      </root>
    </mxGraphModel>
  </diagram>
</mxfile>
